<svg width="23" height="20" viewBox="0 0 23 20" fill="none" xmlns="http://www.w3.org/2000/svg">
<path d="M6.81549 1.44797L6.81498 1.44797C5.24781 1.44727 3.86403 1.94654 2.88932 2.85885L2.88905 2.85911C1.9261 3.75974 1.29646 5.13991 1.29635 6.96678L6.81549 1.44797ZM6.81549 1.44797C8.21234 1.44787 9.48721 2.34664 10.5836 3.46466L11.2982 4.19337L12.0122 3.46401C13.1072 2.34533 14.4001 1.44782 15.8044 1.44726C17.3647 1.44805 18.7277 1.94844 19.7075 2.86027C20.6767 3.76232 21.3244 5.12814 21.3243 6.9669C21.3236 8.69745 20.0896 10.4335 18.018 12.4052L18.0177 12.4055C16.6741 13.6854 15.106 14.9387 13.4783 16.2396C12.7581 16.8152 12.0263 17.4001 11.2971 18.0007C10.5645 17.3973 9.82944 16.8108 9.10658 16.234C7.48056 14.9365 5.91611 13.6882 4.57884 12.4069L4.57879 12.4069M6.81549 1.44797L4.57879 12.4069M4.57879 12.4069C2.51853 10.4332 1.29653 8.67853 1.29635 6.9669L4.57879 12.4069Z" fill="black" fill-opacity="0.7" stroke="#FAFFFA" stroke-width="2"/>
</svg>
